<?xml version="1.0" standalone="no"?>
<!DOCTYPE svg PUBLIC "-//W3C//DTD SVG 20010904//EN"
 "http://www.w3.org/TR/2001/REC-SVG-20010904/DTD/svg10.dtd">
<svg version="1.0" xmlns="http://www.w3.org/2000/svg"
 width="813.000000pt" height="813.000000pt" viewBox="0 0 813.000000 813.000000"
 preserveAspectRatio="xMidYMid meet">
<metadata>
Created by potrace 1.11, written by Peter Selinger 2001-2013
</metadata>
<g transform="translate(0.000000,813.000000) scale(0.100000,-0.100000)"
fill="#000000" stroke="none">
<path d="M3808 7032 c-76 -48 -152 -96 -170 -107 -18 -11 -46 -29 -63 -40 -17
-11 -60 -37 -96 -59 -35 -21 -66 -41 -69 -45 -3 -4 -18 -14 -35 -23 -16 -8
-124 -74 -238 -147 -114 -72 -212 -131 -217 -131 -4 0 -10 -4 -12 -8 -1 -4
-32 -26 -68 -47 -36 -21 -67 -42 -70 -46 -3 -4 -17 -13 -30 -18 -26 -11 -61
-32 -70 -41 -4 -5 -288 -183 -341 -215 -72 -43 -115 -70 -119 -75 -3 -3 -39
-26 -80 -50 -90 -54 -170 -105 -187 -120 -7 -5 -14 -10 -17 -10 -3 0 -82 -48
-176 -107 -223 -142 -221 -140 -252 -158 -16 -9 -29 -19 -29 -23 -6 -36 -2
-2602 4 -2602 5 0 6 -3 3 -8 -3 -6 265 -180 409 -265 11 -7 39 -24 62 -39 23
-16 46 -28 52 -28 6 0 11 -3 11 -8 0 -4 9 -12 20 -17 40 -20 165 -100 168
-107 2 -5 9 -8 15 -8 7 0 44 -22 84 -48 40 -26 102 -65 138 -87 36 -22 94 -58
129 -80 97 -62 97 -62 161 -100 33 -20 105 -65 160 -100 55 -36 116 -74 135
-85 19 -11 47 -28 61 -38 15 -9 53 -33 85 -52 33 -19 64 -38 69 -42 22 -19
268 -168 276 -168 5 0 9 -4 9 -10 0 -5 4 -10 9 -10 6 0 30 -13 54 -30 25 -16
50 -30 56 -30 6 0 11 -3 11 -8 0 -4 17 -16 38 -27 20 -11 41 -25 45 -32 4 -7
13 -13 19 -13 7 0 28 -10 47 -23 117 -77 153 -97 169 -97 10 0 59 27 110 60
51 33 95 60 98 60 3 0 32 18 65 40 33 22 65 40 70 40 5 0 9 3 9 8 0 4 18 16
40 26 22 10 48 27 59 37 11 11 24 19 28 19 4 0 38 20 74 43 36 24 72 47 80 50
21 10 332 205 346 217 7 5 16 10 21 10 4 0 17 8 28 18 10 10 26 21 34 24 16 6
509 312 525 326 6 4 17 11 25 15 8 4 33 19 55 32 22 14 48 28 58 32 9 3 17 9
17 14 0 5 10 14 23 19 12 5 83 47 157 95 74 47 147 91 163 98 15 6 27 15 27
19 0 4 5 8 11 8 6 0 25 10 42 23 18 12 41 27 52 34 113 67 241 149 243 155 2
4 10 8 17 8 8 0 19 8 24 18 5 10 9 210 10 487 0 259 1 475 1 480 1 6 1 35 0
65 -1 30 -3 398 -3 816 -2 729 -3 763 -21 783 -10 11 -21 19 -25 18 -6 -1 -54
28 -139 84 -24 16 -45 29 -48 29 -3 0 -17 8 -32 18 -76 52 -148 96 -153 95 -4
-1 -15 7 -24 17 -10 11 -22 20 -27 20 -5 0 -36 18 -68 40 -32 22 -64 40 -69
40 -6 0 -11 5 -11 10 0 6 -4 10 -10 10 -5 0 -42 21 -82 47 -102 66 -109 71
-144 87 -17 8 -36 22 -44 30 -7 9 -19 16 -26 16 -8 0 -14 4 -14 9 0 5 -6 11
-12 13 -12 3 -191 113 -310 191 -24 15 -55 33 -70 39 -16 7 -28 16 -28 20 0 4
-7 8 -15 8 -8 0 -15 5 -15 10 0 6 -4 10 -9 10 -5 0 -58 31 -118 70 -59 38
-127 79 -150 91 -24 13 -43 26 -43 31 0 4 -4 8 -9 8 -5 0 -58 32 -118 70 -59
39 -115 73 -123 77 -8 4 -89 53 -178 110 -90 57 -167 103 -171 103 -4 0 -16 9
-26 20 -10 11 -22 20 -26 20 -5 0 -37 18 -71 40 -35 22 -72 39 -83 39 -11 0
-82 -40 -157 -87z"/>
</g>
</svg>
